<svg viewBox="0 0 900 300" xmlns="http://www.w3.org/2000/svg" font-family="'Segoe UI', Roboto, Helvetica, Arial, sans-serif">
  <rect width="900" height="300" fill="#15161b"/>

  <text x="215" y="24" fill="#ffffff" font-size="14" font-weight="700" text-anchor="middle">Verbund – Reihe (1×4)</text>
  <rect x="20" y="36" width="390" height="120" rx="18" fill="none" stroke="#3a3c44" stroke-width="2" stroke-dasharray="6 5"/>
  <text x="215" y="170" fill="#787b85" font-size="11" text-anchor="middle">eine einzige Karte</text>

  <!-- 4 Mini-Kacheln in Reihe -->
  <g transform="translate(30,46)">
    <rect width="88" height="100" rx="12" fill="#24262d"/>
    <circle cx="44" cy="34" r="18" fill="#2d1f45"/>
    <rect x="36" y="26" width="16" height="16" rx="2" fill="none" stroke="#a259ff" stroke-width="3"/>
    <text x="44" y="68" fill="#ffffff" font-size="10" font-weight="700" text-anchor="middle">Rollläden</text>
    <text x="44" y="84" fill="#c9cbd1" font-size="9" text-anchor="middle">3 offen</text>
  </g>
  <g transform="translate(126,46)">
    <rect width="88" height="100" rx="12" fill="#24262d"/>
    <circle cx="44" cy="34" r="18" fill="#1f2d22"/>
    <path d="M44 24 L54 30 L54 44 L34 44 L34 30 Z" fill="none" stroke="#4caf50" stroke-width="3"/>
    <text x="44" y="68" fill="#ffffff" font-size="10" font-weight="700" text-anchor="middle">Fenster</text>
    <text x="44" y="84" fill="#c9cbd1" font-size="9" text-anchor="middle">zu</text>
  </g>
  <g transform="translate(222,46)">
    <rect width="88" height="100" rx="12" fill="#24262d"/>
    <circle cx="44" cy="34" r="18" fill="#3a2f10"/>
    <circle cx="44" cy="30" r="9" fill="none" stroke="#ffc107" stroke-width="3"/>
    <line x1="40" y1="39" x2="40" y2="43" stroke="#ffc107" stroke-width="3" stroke-linecap="round"/>
    <line x1="48" y1="39" x2="48" y2="43" stroke="#ffc107" stroke-width="3" stroke-linecap="round"/>
    <text x="44" y="68" fill="#ffffff" font-size="10" font-weight="700" text-anchor="middle">Lampen</text>
    <text x="44" y="84" fill="#c9cbd1" font-size="9" text-anchor="middle">5 an</text>
  </g>
  <g transform="translate(318,46)">
    <rect width="88" height="100" rx="12" fill="#24262d"/>
    <circle cx="44" cy="34" r="18" fill="#1f2d22"/>
    <rect x="37" y="24" width="14" height="18" rx="2" fill="none" stroke="#4caf50" stroke-width="3"/>
    <text x="44" y="68" fill="#ffffff" font-size="10" font-weight="700" text-anchor="middle">Batterien</text>
    <text x="44" y="84" fill="#c9cbd1" font-size="9" text-anchor="middle">OK</text>
  </g>

  <text x="690" y="24" fill="#ffffff" font-size="14" font-weight="700" text-anchor="middle">Verbund – Raster (2×2)</text>
  <rect x="470" y="36" width="440" height="240" rx="18" fill="none" stroke="#3a3c44" stroke-width="2" stroke-dasharray="6 5"/>
  <text x="690" y="290" fill="#787b85" font-size="11" text-anchor="middle">ebenfalls eine einzige Karte</text>

  <g transform="translate(482,48)">
    <rect width="200" height="100" rx="12" fill="#24262d"/>
    <circle cx="44" cy="36" r="20" fill="#2d1f45"/>
    <rect x="35" y="27" width="18" height="18" rx="2" fill="none" stroke="#a259ff" stroke-width="3"/>
    <text x="44" y="72" fill="#ffffff" font-size="11" font-weight="700">3 Rollläden</text>
    <text x="44" y="88" fill="#c9cbd1" font-size="10">offen</text>
  </g>
  <g transform="translate(694,48)">
    <rect width="200" height="100" rx="12" fill="#24262d"/>
    <circle cx="44" cy="36" r="20" fill="#1f2d22"/>
    <path d="M44 24 L56 31 L56 48 L32 48 L32 31 Z" fill="none" stroke="#4caf50" stroke-width="3"/>
    <text x="44" y="72" fill="#ffffff" font-size="11" font-weight="700">Alle Fenster</text>
    <text x="44" y="88" fill="#c9cbd1" font-size="10">geschlossen</text>
  </g>
  <g transform="translate(482,160)">
    <rect width="200" height="100" rx="12" fill="#24262d"/>
    <circle cx="44" cy="36" r="20" fill="#3a2f10"/>
    <circle cx="44" cy="30" r="10" fill="none" stroke="#ffc107" stroke-width="3"/>
    <line x1="39" y1="41" x2="39" y2="46" stroke="#ffc107" stroke-width="3" stroke-linecap="round"/>
    <line x1="49" y1="41" x2="49" y2="46" stroke="#ffc107" stroke-width="3" stroke-linecap="round"/>
    <text x="44" y="72" fill="#ffffff" font-size="11" font-weight="700">5 Lampen</text>
    <text x="44" y="88" fill="#c9cbd1" font-size="10">an</text>
  </g>
  <g transform="translate(694,160)">
    <rect width="200" height="100" rx="12" fill="#24262d"/>
    <circle cx="44" cy="36" r="20" fill="#1f2d22"/>
    <rect x="36" y="24" width="16" height="20" rx="2" fill="none" stroke="#4caf50" stroke-width="3"/>
    <text x="44" y="72" fill="#ffffff" font-size="11" font-weight="700">Alle Batterien</text>
    <text x="44" y="88" fill="#c9cbd1" font-size="10">OK</text>
  </g>
</svg>
